<?xml version="1.0" encoding="UTF-8"?>
<svg version="1.1" viewBox="0 0 36 36" xmlns="http://www.w3.org/2000/svg" xmlns:cc="http://creativecommons.org/ns#" xmlns:dc="http://purl.org/dc/elements/1.1/" xmlns:rdf="http://www.w3.org/1999/02/22-rdf-syntax-ns#"><g transform="matrix(.62342 -.62342 .62342 .62342 -1.8241 20.604)"><path d="m13.431 9.802c0.658 2.638-8.673 10.489-11.244 4.098-1.491-3.703-2.793-11.466-1.313-11.835 1.48-0.368 11.9 5.098 12.557 7.737z" fill="#303030"/><path d="m11.437 10.355c0.96 1.538-1.831 4.561-3.368 5.522-1.538 0.961-2.899-0.552-4.414-4.414-0.662-1.689-1.666-6.27-1.103-6.622 0.562-0.351 7.924 3.976 8.885 5.514z" fill="#666"/><path d="m22.557 9.802c-0.657 2.639 8.673 10.489 11.245 4.098 1.49-3.703 2.792-11.466 1.312-11.835-1.48-0.368-11.899 5.098-12.557 7.737z" fill="#303030"/><path d="m24.552 10.355c-0.96 1.538 1.831 4.561 3.368 5.522s2.898-0.552 4.413-4.414c0.662-1.688 1.666-6.269 1.104-6.621-0.563-0.352-7.924 3.975-8.885 5.513z" fill="#666"/><g><path d="m32.347 26.912c0-0.454-0.188-1.091-0.407-1.687 0.585 0.028 1.519 0.191 2.77 0.817-8e-3 -0.536-0.118-0.984-0.273-1.393 0.041 0.02 0.075 0.034 0.116 0.055-1.103-3.31-3.309-5.517-3.309-5.517h2.206c-2.331-4.663-4.965-8.015-8.075-9.559-1.39-0.873-3.688-1.338-7.373-1.339h-3e-3c-3.695 0-5.996 0.468-7.385 1.346-3.104 1.547-5.734 4.896-8.061 9.552h2.207s-2.207 2.206-3.311 5.517c0.03-0.015 0.055-0.025 0.084-0.04-0.201 0.392-0.307 0.847-0.282 1.377 1.263-0.632 2.217-0.792 2.813-0.818-0.189 0.513-0.343 1.044-0.386 1.475-0.123 0.371-0.191 0.812-0.135 1.343 3.207-1.457 4.707-1.249 6.457-0.374 1.213 3.623 4.206 6.333 8.001 6.333 3.793 0 6.746-2.794 7.958-6.416 1.458-1.25 3.708-0.875 6.416 0.416 0.066-0.414 0.036-0.773-0.036-1.093z" fill="#ccc"/><path d="m19.993 17.454c0 1.8541 1.0635 4.5587 4.6276 3.9593 2.407-0.781 8.681 0.454 9.9295 3.291-1.1055-3.311-3.3125-5.517-3.3125-5.517h2.207c-2.327-4.656-4.957-8.005-8.061-9.552-0.63799-0.37209-1.3562-0.66242-2.2077-0.87064-2.1724 2.3533-3.3111 5.2072-3.1829 8.6894zm-3.9888-1e-6c0 1.8541-1.0635 4.5587-4.6276 3.9593-2.407-0.781-8.681 0.454-9.9295 3.291 1.1055-3.311 3.3125-5.517 3.3125-5.517h-2.207c2.327-4.656 4.957-8.005 8.061-9.552 0.63799-0.37209 1.3562-0.66242 2.2077-0.87064 2.1724 2.3533 3.3111 5.2072 3.1829 8.6894z" fill="#999" stroke-width="8"/><path d="m31.243 23.601c6e-3 0 1.108 3e-3 3.309 1.103-1.249-2.839-7.525-4.07-9.931-3.291-1.171 1.954-1.281 5.003-3.383 6.622-1.741 1.431-4.713 1.458-6.479 0-2.345-1.924-2.559-5.813-3.382-6.622-2.407-0.781-8.681 0.454-9.931 3.291 2.201-1.101 3.304-1.103 3.309-1.103 0 1e-3 -1.103 2.208-1.103 3.311l1e-3 -1e-3v1e-3c2.398-1.573 5.116-2.271 7.429-0.452 1.666 7.921 12.293 7.545 13.833 0 2.314-1.818 5.03-1.122 7.429 0.452v-1e-3l1e-3 1e-3c2e-3 -1.103-1.101-3.311-1.102-3.311z" fill="#f2f2f2"/><path d="m11 17s0-1.5 1.5-1.5 1.5 1.5 1.5 1.5v1.5s0 1.5-1.5 1.5-1.5-1.5-1.5-1.5zm11 0s0-1.5 1.5-1.5 1.5 1.5 1.5 1.5v1.5s0 1.5-1.5 1.5-1.5-1.5-1.5-1.5zm-7.061 10.808c-1.021 0.208 2.041 3.968 3.062 3.968 1.02 0 4.082-3.76 3.062-3.968-1.021-0.208-5.103-0.208-6.124 0z" fill="#272b2b"/></g></g><metadata><rdf:RDF><cc:Work rdf:about=""><dc:creator><cc:Agent><dc:title>chfour</dc:title></cc:Agent></dc:creator><cc:license rdf:resource="http://creativecommons.org/licenses/by/4.0/"/><dc:source>https://github.com/jdecked/twemoji/blob/main/assets/svg/1f98a.svg</dc:source></cc:Work><cc:License rdf:about="http://creativecommons.org/licenses/by/4.0/"><cc:permits rdf:resource="http://creativecommons.org/ns#Reproduction"/><cc:permits rdf:resource="http://creativecommons.org/ns#Distribution"/><cc:requires rdf:resource="http://creativecommons.org/ns#Notice"/><cc:requires rdf:resource="http://creativecommons.org/ns#Attribution"/><cc:permits rdf:resource="http://creativecommons.org/ns#DerivativeWorks"/></cc:License></rdf:RDF></metadata></svg>
